<svg width="44" height="45" viewBox="0 0 44 45" fill="none" xmlns="http://www.w3.org/2000/svg">
<path d="M29.6267 18.8333C29.6267 18.8333 29.3517 20.6666 23.6684 28C18.3334 34.9116 26.0518 40.1733 26.9685 40.7783C27.0235 40.815 27.0784 40.815 27.1518 40.7783C28.3984 40.0083 42.2767 31.08 29.6267 18.8333Z" fill="#14804C"/>
<path d="M25.2267 14.7817C25.2267 10.565 23.5768 6.71498 21.9268 4.51498C21.3768 3.96498 20.4601 4.14832 20.2767 4.88165C19.5434 7.63165 17.3434 13.4983 12.0267 20.465C5.24339 29.265 11.4767 38.7983 17.8934 40.6317C21.3767 41.5483 16.9768 38.7983 16.4268 33.115C15.8768 25.965 25.2267 20.6483 25.2267 14.7817Z" fill="#14804C"/>
</svg>
